<svg xmlns="http://www.w3.org/2000/svg" xmlns:xlink="http://www.w3.org/1999/xlink" viewBox="0 0 437.63 150.98"><defs><style>.cls-1{fill:#e13a41;}.cls-2{fill:#9c478f;}.cls-3{fill:#a53692;}.cls-4{fill:#d3383c;}.cls-5{fill:#ed8d39;}.cls-6{fill:#ffcc2a;}.cls-7{fill:#ebd736;}.cls-8{fill:#c3d83c;}.cls-9{fill:#a3a631;}.cls-10{fill:#008c90;}.cls-11,.cls-19{fill:#004ed8;}.cls-12{fill:#008f9d;}.cls-13{fill:#a0a82f;}.cls-14{fill:#c3d83e;}.cls-15{fill:#ffcc2b;}.cls-16{fill:#f5852b;}.cls-17{fill:url(#linear-gradient);}.cls-18{fill:none;}.cls-19{font-size:24.11px;font-family:FranklinGothic-Heavy, Franklin Gothic Heavy;font-weight:800;letter-spacing:0.1em;}.cls-20{letter-spacing:0.12em;}.cls-21{letter-spacing:0.07em;}.cls-22{letter-spacing:0.1em;}.cls-23{letter-spacing:0.09em;}</style><linearGradient id="linear-gradient" x1="237.55" y1="18.87" x2="274.98" y2="18.87" gradientTransform="translate(0.51 4.74) rotate(-0.99)" gradientUnits="userSpaceOnUse"><stop offset="0" stop-color="#ed1c24"/><stop offset="1" stop-color="#ed1c24"/></linearGradient></defs><title>Asset 7</title><g id="Layer_2" data-name="Layer 2"><g id="Layer_1-2" data-name="Layer 1"><path class="cls-1" d="M15.91,114.71a1.4,1.4,0,1,1,.74,1.82A1.39,1.39,0,0,1,15.91,114.71Z"/><path class="cls-2" d="M8.21,115.45a1.11,1.11,0,0,1,1.44-.58,1.09,1.09,0,0,1,.58,1.44,1.11,1.11,0,0,1-1.44.58A1.09,1.09,0,0,1,8.21,115.45Z"/><path class="cls-3" d="M32.66,74.84a9.21,9.21,0,0,1-12.12,4.62,9.1,9.1,0,0,1-4.65-12A9.2,9.2,0,0,1,28,62.79,9.11,9.11,0,0,1,32.66,74.84Z"/><path class="cls-4" d="M18.78,58.38A7.06,7.06,0,1,1,15.2,49.1,7,7,0,0,1,18.78,58.38Z"/><path class="cls-5" d="M11.29,44a5.89,5.89,0,1,1-3-7.74A5.85,5.85,0,0,1,11.29,44Z"/><path class="cls-6" d="M10.27,28.38a5,5,0,0,1-6.6,2.52,5,5,0,0,1-2.53-6.56,5,5,0,0,1,9.13,4Z"/><path class="cls-7" d="M16,16.24a3.9,3.9,0,0,1-5.14,2,3.85,3.85,0,0,1-2-5.11A3.89,3.89,0,0,1,16,16.24Z"/><path class="cls-8" d="M24.83,8.82a3.1,3.1,0,1,1-1.57-4.07A3.09,3.09,0,0,1,24.83,8.82Z"/><path class="cls-9" d="M33.87,4.77A2.1,2.1,0,0,1,30,3.07,2.12,2.12,0,0,1,32.81,2,2.08,2.08,0,0,1,33.87,4.77Z"/><path class="cls-10" d="M42.84,2.15A1.4,1.4,0,0,1,40.28,1,1.42,1.42,0,0,1,42.13.31,1.38,1.38,0,0,1,42.84,2.15Z"/><path class="cls-10" d="M50.56,1.54a1.11,1.11,0,0,1-1.46.55A1.08,1.08,0,0,1,48.55.65a1.1,1.1,0,0,1,2,.89Z"/><path class="cls-11" d="M23.78,41.18a9.2,9.2,0,0,1,12-4.83,9.13,9.13,0,1,1-12,4.83Z"/><path class="cls-12" d="M37.94,57.39a7.07,7.07,0,1,1,3.75,9.23A7.09,7.09,0,0,1,37.94,57.39Z"/><path class="cls-13" d="M45.68,71.68a5.91,5.91,0,0,1,7.74-3.1,5.84,5.84,0,0,1,3.12,7.69,5.9,5.9,0,0,1-10.86-4.59Z"/><path class="cls-14" d="M47,87.24a5,5,0,1,1,2.64,6.52A5,5,0,0,1,47,87.24Z"/><path class="cls-7" d="M41.43,99.49a3.9,3.9,0,0,1,5.11-2,3.85,3.85,0,0,1,2.06,5.07,3.91,3.91,0,0,1-5.11,2.06A3.87,3.87,0,0,1,41.43,99.49Z"/><path class="cls-15" d="M32.76,107.06a3.11,3.11,0,0,1,4.06-1.64,3.09,3.09,0,1,1-4.06,1.64Z"/><path class="cls-16" d="M23.79,111.27a2.11,2.11,0,0,1,2.76-1.11,2.09,2.09,0,1,1-2.76,1.11Z"/><path class="cls-11" d="M156,36.21,139.88,39a34.73,34.73,0,0,0,1.05-7.58q0-19.6-25.26-19.61-19.92,0-19.93,13.51,0,10.14,22.29,17.39,43,13.92,43,41.2,0,16-12.06,25.67t-32.07,9.68q-44.33,0-44.32-32.38A60.12,60.12,0,0,1,73,80.38l16.69-3.46a49.13,49.13,0,0,0-1.92,12.44q0,20.94,25.43,20.93,20.37,0,20.37-15.08,0-11.2-24.39-19.69Q74,63.33,74,36.54q0-15.16,11.76-24.43t30.89-9.27Q156,2.84,156,36.21Z"/><path class="cls-11" d="M205.71,3.22V119.27h-31.9V4.9Q187,4.9,205.71,3.22Z"/><path class="cls-11" d="M385.52,33.67,368.6,56l26.55,62.93H361.5L347.2,84.2l-6.78,8.94-.07,25.77H308.44V5.13a313.21,313.21,0,0,0,31.91-1.84l-.27,72.34,31.4-41.41Z"/><path class="cls-11" d="M405.73,119V35.38a244.9,244.9,0,0,0,31.9-2.24V119ZM421.9,2.83q14.85,0,14.85,11t-14.85,11q-14.86,0-14.86-11T421.9,2.83Z"/><path class="cls-11" d="M246.7,73.69q0-35.16,10.15-35.17c4.78,0,8,6.42,9.42,18.3l13-17.77c-5.93-4.39-12.57-7-22.42-7q-37.22,0-37.21,41.61c0,12.91,4,25.45,9,32.33l18.07-23.89C246.62,80.14,246.7,75.9,246.7,73.69Z"/><path class="cls-17" d="M238.48,26.32s4.41-14.46,10.8-13.31,19.55,5.69,21.54,2.55,2.3-3.52,2.3-3.52l2.55-.06s-2.69,11.38-8.2,12.53-7.51,0-9.05-.21-13.08-4.72-15-1.16c-1.69,3.15-1.68,3.18-1.68,3.18Z"/><path class="cls-11" d="M266.33,78.31q0,35-10.14,35c-4.79,0-7.35-2-8.73-13.84L235.63,115c5.93,4.37,10.71,4.68,20.56,4.68q37.2,0,37.2-41.4c0-12.84-2.14-23.2-6.94-30.12L266.31,74.44C266.37,76.43,266.33,76.12,266.33,78.31Z"/><line class="cls-18" x1="230.24" y1="122.11" x2="295.01" y2="36.94"/><line class="cls-18" x1="224.24" y1="112.08" x2="289.01" y2="26.92"/><line class="cls-18" x1="323.24" y1="115.81" x2="388.01" y2="30.85"/><line class="cls-18" x1="317.24" y1="105.81" x2="382.01" y2="20.85"/><text class="cls-19" transform="translate(95.77 143.58) scale(0.96 1)">SOF<tspan class="cls-20" x="51.8" y="0">T</tspan><tspan class="cls-21" x="66.15" y="0">W</tspan><tspan class="cls-22" x="89.5" y="0">ARE TECHNO</tspan><tspan class="cls-23" x="256.1" y="0">L</tspan><tspan x="271.31" y="0">OGIES</tspan></text></g></g></svg>